<mxfile host="app.diagrams.net" modified="2024-03-27T21:59:20.125Z" agent="Mozilla/5.0 (Macintosh; Intel Mac OS X 10.15; rv:124.0) Gecko/20100101 Firefox/124.0" etag="Tvo4lFsjC0plw62lBgFl" version="24.2.0" type="github">
  <diagram name="Page-1" id="bgw6Ty6ryX-Bh5xOLWq1">
    <mxGraphModel dx="4072" dy="3188" grid="0" gridSize="10" guides="1" tooltips="1" connect="1" arrows="1" fold="1" page="0" pageScale="1" pageWidth="850" pageHeight="1100" math="0" shadow="0">
      <root>
        <mxCell id="0" />
        <mxCell id="1" parent="0" />
        <mxCell id="R4EHs0gGsL9Us6-6UwET-13" value="" style="group" parent="1" vertex="1" connectable="0">
          <mxGeometry x="-821" y="204" width="762" height="607" as="geometry" />
        </mxCell>
        <mxCell id="R4EHs0gGsL9Us6-6UwET-1" value="" style="rounded=0;whiteSpace=wrap;html=1;movable=1;resizable=1;rotatable=1;deletable=1;editable=1;locked=0;connectable=1;container=0;" parent="R4EHs0gGsL9Us6-6UwET-13" vertex="1">
          <mxGeometry width="762" height="607" as="geometry" />
        </mxCell>
        <mxCell id="R4EHs0gGsL9Us6-6UwET-2" value="&lt;h1 style=&quot;margin-top: 0px; font-size: 34px;&quot;&gt;&lt;font style=&quot;font-size: 34px;&quot;&gt;Requirement Engineering&lt;br&gt;&lt;/font&gt;&lt;/h1&gt;&lt;p style=&quot;font-size: 34px;&quot;&gt;&lt;font style=&quot;font-size: 34px;&quot;&gt;Definisce i requisiti del sistema di interesse&lt;br&gt;Cosa deve fare il sistema?&lt;br&gt;Quali sono i vincoli operativi?&lt;/font&gt;&lt;/p&gt;&lt;p style=&quot;font-size: 34px;&quot;&gt;&lt;font style=&quot;font-size: 34px;&quot;&gt;&lt;font style=&quot;font-size: 34px;&quot;&gt;L&#39;ingegneria dei requisiti comprende:&lt;br&gt;- Raccolta dei requisiti&lt;br&gt;- Analisi dei requisiti&lt;br&gt;- Specifica/Documentazione dei requisiti&lt;br&gt;- Verifica e validazione dei requisiti&lt;/font&gt;&lt;font style=&quot;font-size: 34px;&quot;&gt;&lt;br&gt;&lt;/font&gt;&lt;/font&gt;&lt;/p&gt;" style="text;html=1;whiteSpace=wrap;overflow=hidden;rounded=0;movable=1;resizable=1;rotatable=1;deletable=1;editable=1;locked=0;connectable=1;container=0;" parent="R4EHs0gGsL9Us6-6UwET-13" vertex="1">
          <mxGeometry x="51.55" y="47.82" width="664.45" height="529.18" as="geometry" />
        </mxCell>
        <mxCell id="R4EHs0gGsL9Us6-6UwET-14" value="" style="group;fillColor=none;strokeColor=#6c8ebf;" parent="1" vertex="1" connectable="0">
          <mxGeometry x="221" y="-192" width="349" height="356" as="geometry" />
        </mxCell>
        <mxCell id="R4EHs0gGsL9Us6-6UwET-8" value="" style="rounded=0;whiteSpace=wrap;html=1;movable=1;resizable=1;rotatable=1;deletable=1;editable=1;locked=0;connectable=1;container=0;fillColor=none;strokeColor=#6c8ebf;" parent="R4EHs0gGsL9Us6-6UwET-14" vertex="1">
          <mxGeometry width="349" height="356" as="geometry" />
        </mxCell>
        <mxCell id="R4EHs0gGsL9Us6-6UwET-9" value="&lt;h1 style=&quot;margin-top: 0px;&quot;&gt;Requirement Elicitation&lt;br&gt;&lt;/h1&gt;&lt;p&gt;Raccolta (scoperta) dei requisiti.&lt;/p&gt;&lt;p&gt;Vengono intervistati gli stakeholders per ottenere un insieme di requisiti del nuovo sistema, vengono definiti i confini del sistema da sviluppare.&lt;br&gt;&lt;br&gt;Vengono specificati:&lt;br&gt;- FunzionalitÃ  del sistema&lt;br&gt;- Interazione tra utente e sistema&lt;/p&gt;&lt;p&gt;- Errori che il sistema deve individuare e gestire&lt;br&gt;- Vincoli e condizioni di utilizzo del sistema&lt;br&gt;&lt;/p&gt;" style="text;html=1;whiteSpace=wrap;overflow=hidden;rounded=0;movable=1;resizable=1;rotatable=1;deletable=1;editable=1;locked=0;connectable=1;container=0;fillColor=none;strokeColor=#6c8ebf;" parent="R4EHs0gGsL9Us6-6UwET-14" vertex="1">
          <mxGeometry x="46.247374301675976" y="33.797468354430386" width="264.3236312849162" height="273.4891139240506" as="geometry" />
        </mxCell>
        <mxCell id="R4EHs0gGsL9Us6-6UwET-15" value="" style="group" parent="1" vertex="1" connectable="0">
          <mxGeometry x="221" y="516" width="277" height="266" as="geometry" />
        </mxCell>
        <mxCell id="R4EHs0gGsL9Us6-6UwET-16" value="" style="rounded=0;whiteSpace=wrap;html=1;movable=1;resizable=1;rotatable=1;deletable=1;editable=1;locked=0;connectable=1;container=0;" parent="R4EHs0gGsL9Us6-6UwET-15" vertex="1">
          <mxGeometry width="277" height="266" as="geometry" />
        </mxCell>
        <mxCell id="R4EHs0gGsL9Us6-6UwET-17" value="&lt;h1 style=&quot;margin-top: 0px;&quot;&gt;Requirement Analysis&lt;br&gt;&lt;/h1&gt;Le informazioni raccolte vengono organizzate in un documento, con supporto di diagrammi di alto livello (UML Use Cases + Cockburn + Mock-up)" style="text;html=1;whiteSpace=wrap;overflow=hidden;rounded=0;movable=1;resizable=1;rotatable=1;deletable=1;editable=1;locked=0;connectable=1;container=0;" parent="R4EHs0gGsL9Us6-6UwET-15" vertex="1">
          <mxGeometry x="36.70757321905069" y="46.428454963839584" width="209.794966442953" height="183.1762393162393" as="geometry" />
        </mxCell>
        <mxCell id="R4EHs0gGsL9Us6-6UwET-18" value="" style="group" parent="1" vertex="1" connectable="0">
          <mxGeometry x="191" y="1418" width="277" height="266" as="geometry" />
        </mxCell>
        <mxCell id="R4EHs0gGsL9Us6-6UwET-19" value="" style="rounded=0;whiteSpace=wrap;html=1;movable=1;resizable=1;rotatable=1;deletable=1;editable=1;locked=0;connectable=1;container=0;" parent="R4EHs0gGsL9Us6-6UwET-18" vertex="1">
          <mxGeometry width="277" height="266" as="geometry" />
        </mxCell>
        <mxCell id="R4EHs0gGsL9Us6-6UwET-20" value="&lt;h1 style=&quot;margin-top: 0px;&quot;&gt;Requirement Specification&lt;br&gt;&lt;/h1&gt;&lt;p&gt;I requisiti riorganizzati nella fase di analisi vengono formalizzati per mezzo di opportuni linguaggi di modellazione ( UML Class - Sequence - Activity - Statechart Diagrams)&lt;br&gt;&lt;/p&gt;" style="text;html=1;whiteSpace=wrap;overflow=hidden;rounded=0;movable=1;resizable=1;rotatable=1;deletable=1;editable=1;locked=0;connectable=1;container=0;" parent="R4EHs0gGsL9Us6-6UwET-18" vertex="1">
          <mxGeometry x="36.70757321905069" y="46.428454963839584" width="209.794966442953" height="183.1762393162393" as="geometry" />
        </mxCell>
        <mxCell id="R4EHs0gGsL9Us6-6UwET-22" value="" style="group" parent="1" vertex="1" connectable="0">
          <mxGeometry x="223" y="960" width="277" height="266" as="geometry" />
        </mxCell>
        <mxCell id="R4EHs0gGsL9Us6-6UwET-23" value="" style="rounded=0;whiteSpace=wrap;html=1;movable=1;resizable=1;rotatable=1;deletable=1;editable=1;locked=0;connectable=1;container=0;" parent="R4EHs0gGsL9Us6-6UwET-22" vertex="1">
          <mxGeometry width="277" height="266" as="geometry" />
        </mxCell>
        <mxCell id="R4EHs0gGsL9Us6-6UwET-24" value="&lt;h1 style=&quot;margin-top: 0px;&quot;&gt;Requirement Validation&lt;/h1&gt;&lt;div&gt;Viene effettuato un controllo sull&#39;adeguatezza dei requisiti che definiscono il sistema richiesto dal cliente&lt;br&gt;&lt;/div&gt;" style="text;html=1;whiteSpace=wrap;overflow=hidden;rounded=0;movable=1;resizable=1;rotatable=1;deletable=1;editable=1;locked=0;connectable=1;container=0;" parent="R4EHs0gGsL9Us6-6UwET-22" vertex="1">
          <mxGeometry x="36.70757321905069" y="46.428454963839584" width="209.794966442953" height="183.1762393162393" as="geometry" />
        </mxCell>
        <mxCell id="R4EHs0gGsL9Us6-6UwET-26" value="1" style="text;html=1;align=center;verticalAlign=middle;whiteSpace=wrap;rounded=0;fontSize=41;fillColor=none;strokeColor=#6c8ebf;" parent="1" vertex="1">
          <mxGeometry x="173" y="-181" width="48" height="30" as="geometry" />
        </mxCell>
        <mxCell id="R4EHs0gGsL9Us6-6UwET-27" value="2" style="text;html=1;align=center;verticalAlign=middle;whiteSpace=wrap;rounded=0;fontSize=41;" parent="1" vertex="1">
          <mxGeometry x="171" y="516" width="48" height="30" as="geometry" />
        </mxCell>
        <mxCell id="R4EHs0gGsL9Us6-6UwET-28" value="3" style="text;html=1;align=center;verticalAlign=middle;whiteSpace=wrap;rounded=0;fontSize=41;" parent="1" vertex="1">
          <mxGeometry x="176" y="961" width="48" height="30" as="geometry" />
        </mxCell>
        <mxCell id="R4EHs0gGsL9Us6-6UwET-29" value="4" style="text;html=1;align=center;verticalAlign=middle;whiteSpace=wrap;rounded=0;fontSize=41;" parent="1" vertex="1">
          <mxGeometry x="143" y="1420" width="48" height="30" as="geometry" />
        </mxCell>
        <mxCell id="mennD_nQfhp7gI7Amu3e-4" value="" style="group;fillColor=none;dashed=1;dashPattern=8 8;strokeWidth=1;strokeColor=#6c8ebf;fillStyle=solid;gradientColor=default;gradientDirection=north;rounded=0;glass=0;" vertex="1" connectable="0" parent="1">
          <mxGeometry x="456" y="-872" width="277" height="266" as="geometry" />
        </mxCell>
        <mxCell id="mennD_nQfhp7gI7Amu3e-5" value="" style="rounded=0;whiteSpace=wrap;html=1;movable=1;resizable=1;rotatable=1;deletable=1;editable=1;locked=0;connectable=1;container=0;fillColor=none;strokeColor=#6c8ebf;fillStyle=solid;gradientColor=default;gradientDirection=north;glass=0;" vertex="1" parent="mennD_nQfhp7gI7Amu3e-4">
          <mxGeometry width="277" height="266" as="geometry" />
        </mxCell>
        <mxCell id="mennD_nQfhp7gI7Amu3e-6" value="&lt;h1 style=&quot;margin-top: 0px;&quot;&gt;Interviste&lt;br&gt;&lt;/h1&gt;&lt;div&gt;- Divise in CHIUSE e APERTE&lt;/div&gt;&lt;div&gt;&lt;br&gt;&lt;/div&gt;&lt;div&gt;- Non sempre efficaci nel raccogliere requisiti (mancanza di precisione nella descrizione del dominio da parte degli stakeholders).&lt;br&gt;&lt;/div&gt;" style="text;html=1;whiteSpace=wrap;overflow=hidden;rounded=0;movable=1;resizable=1;rotatable=1;deletable=1;editable=1;locked=0;connectable=1;container=0;fillColor=none;strokeColor=#6c8ebf;fillStyle=solid;gradientColor=default;gradientDirection=north;glass=0;" vertex="1" parent="mennD_nQfhp7gI7Amu3e-4">
          <mxGeometry x="36.59757321905067" y="41.40845496383952" width="209.794966442953" height="183.1762393162393" as="geometry" />
        </mxCell>
        <mxCell id="mennD_nQfhp7gI7Amu3e-10" value="" style="group;fillColor=none;dashed=1;dashPattern=8 8;strokeWidth=1;strokeColor=#6c8ebf;fillStyle=solid;gradientColor=default;gradientDirection=north;rounded=0;glass=0;" vertex="1" connectable="0" parent="1">
          <mxGeometry x="791" y="-872" width="277" height="266" as="geometry" />
        </mxCell>
        <mxCell id="mennD_nQfhp7gI7Amu3e-11" value="" style="rounded=0;whiteSpace=wrap;html=1;movable=1;resizable=1;rotatable=1;deletable=1;editable=1;locked=0;connectable=1;container=0;fillColor=none;strokeColor=#6c8ebf;fillStyle=solid;gradientColor=default;gradientDirection=north;glass=0;" vertex="1" parent="mennD_nQfhp7gI7Amu3e-10">
          <mxGeometry width="277" height="266" as="geometry" />
        </mxCell>
        <mxCell id="mennD_nQfhp7gI7Amu3e-12" value="&lt;h1 style=&quot;margin-top: 0px;&quot;&gt;Scenari&lt;br&gt;&lt;/h1&gt;Uno scenario Ã¨ una descrizione concreta, focalizzata, e informale di una singola caratteristica di un sistema utilizzata da un singolo attore. &lt;div&gt;&lt;br/&gt;&lt;/div&gt;" style="text;html=1;whiteSpace=wrap;overflow=hidden;rounded=0;movable=1;resizable=1;rotatable=1;deletable=1;editable=1;locked=0;connectable=1;container=0;fillColor=none;strokeColor=#6c8ebf;fillStyle=solid;gradientColor=default;gradientDirection=north;glass=0;" vertex="1" parent="mennD_nQfhp7gI7Amu3e-10">
          <mxGeometry x="36.59757321905067" y="41.40845496383952" width="209.794966442953" height="183.1762393162393" as="geometry" />
        </mxCell>
        <mxCell id="mennD_nQfhp7gI7Amu3e-13" value="" style="group;fillColor=none;dashed=1;dashPattern=8 8;strokeWidth=1;strokeColor=#6c8ebf;gradientColor=#009999;gradientDirection=north;rounded=0;" vertex="1" connectable="0" parent="1">
          <mxGeometry x="1082" y="-873" width="277" height="416" as="geometry" />
        </mxCell>
        <mxCell id="mennD_nQfhp7gI7Amu3e-14" value="" style="rounded=0;whiteSpace=wrap;html=1;movable=1;resizable=1;rotatable=1;deletable=1;editable=1;locked=0;connectable=1;container=0;fillColor=none;strokeColor=#6c8ebf;gradientColor=#009999;gradientDirection=north;" vertex="1" parent="mennD_nQfhp7gI7Amu3e-13">
          <mxGeometry width="277" height="416" as="geometry" />
        </mxCell>
        <mxCell id="mennD_nQfhp7gI7Amu3e-15" value="&lt;h1 style=&quot;margin-top: 0px;&quot;&gt;Euristiche per scoprire Scenari&lt;br&gt;&lt;/h1&gt;&lt;div&gt;- Quali sono i compiti primari che lâutente vuole che esegua il sistema?&lt;/div&gt;&lt;div&gt;&lt;br&gt; &lt;/div&gt;&lt;div&gt;- Quali informazioni saranno create, memorizzate, modificate, cancellate, o aggiunte dallâutente nel sistema? &lt;br&gt;&lt;/div&gt;&lt;div&gt;&lt;br&gt;&lt;/div&gt;&lt;div&gt;- Di quali cambiamenti esterni lâutente deve informare il sistema?&lt;/div&gt;&lt;div&gt;&lt;br&gt;&lt;/div&gt;&lt;div&gt;â¨- Di quali cambiamenti o eventi del sistema deve essere informato lâutente? &lt;/div&gt;&lt;br&gt;&lt;div&gt;&lt;br&gt;&lt;/div&gt;" style="text;html=1;whiteSpace=wrap;overflow=hidden;rounded=0;movable=1;resizable=1;rotatable=1;deletable=1;editable=1;locked=0;connectable=1;container=0;fillColor=none;strokeColor=#6c8ebf;fillStyle=solid;gradientColor=default;gradientDirection=north;glass=0;" vertex="1" parent="mennD_nQfhp7gI7Amu3e-13">
          <mxGeometry x="37.59757321905067" y="64.75908746224526" width="209.794966442953" height="286.4711111111111" as="geometry" />
        </mxCell>
        <mxCell id="mennD_nQfhp7gI7Amu3e-18" value="" style="group;fillColor=none;dashed=1;dashPattern=8 8;strokeWidth=1;strokeColor=#6c8ebf;fillStyle=solid;gradientColor=default;gradientDirection=north;rounded=0;glass=0;" vertex="1" connectable="0" parent="1">
          <mxGeometry x="1443" y="-870" width="277" height="266" as="geometry" />
        </mxCell>
        <mxCell id="mennD_nQfhp7gI7Amu3e-19" value="" style="rounded=0;whiteSpace=wrap;html=1;movable=1;resizable=1;rotatable=1;deletable=1;editable=1;locked=0;connectable=1;container=0;fillColor=none;strokeColor=#6c8ebf;fillStyle=solid;gradientColor=default;gradientDirection=north;glass=0;" vertex="1" parent="mennD_nQfhp7gI7Amu3e-18">
          <mxGeometry width="277" height="266" as="geometry" />
        </mxCell>
        <mxCell id="mennD_nQfhp7gI7Amu3e-20" value="&lt;h1 style=&quot;margin-top: 0px;&quot;&gt;Mock-up&lt;br&gt;&lt;/h1&gt;Rappresentazione statica dellâinterfaccia, intesa come prototipo per avere feedback dallâutente.&lt;br&gt;&lt;br&gt;&lt;div&gt;&lt;br&gt;&lt;/div&gt;" style="text;html=1;whiteSpace=wrap;overflow=hidden;rounded=0;movable=1;resizable=1;rotatable=1;deletable=1;editable=1;locked=0;connectable=1;container=0;fillColor=none;strokeColor=#6c8ebf;fillStyle=solid;gradientColor=default;gradientDirection=north;glass=0;" vertex="1" parent="mennD_nQfhp7gI7Amu3e-18">
          <mxGeometry x="36.59757321905067" y="41.40845496383952" width="209.794966442953" height="183.1762393162393" as="geometry" />
        </mxCell>
        <mxCell id="mennD_nQfhp7gI7Amu3e-22" value="1" style="text;html=1;align=center;verticalAlign=middle;whiteSpace=wrap;rounded=0;fontSize=41;fillColor=none;strokeColor=#6c8ebf;fillStyle=solid;gradientColor=default;gradientDirection=north;glass=0;" vertex="1" parent="1">
          <mxGeometry x="411" y="-861" width="48" height="30" as="geometry" />
        </mxCell>
        <mxCell id="mennD_nQfhp7gI7Amu3e-23" value="2" style="text;html=1;align=center;verticalAlign=middle;whiteSpace=wrap;rounded=0;fontSize=41;fillColor=none;strokeColor=#6c8ebf;fillStyle=solid;gradientColor=default;gradientDirection=north;glass=0;" vertex="1" parent="1">
          <mxGeometry x="744" y="-866" width="48" height="30" as="geometry" />
        </mxCell>
        <mxCell id="mennD_nQfhp7gI7Amu3e-24" value="3" style="text;html=1;align=center;verticalAlign=middle;whiteSpace=wrap;rounded=0;fontSize=41;fillColor=none;strokeColor=#6c8ebf;fillStyle=solid;gradientColor=default;gradientDirection=north;glass=0;" vertex="1" parent="1">
          <mxGeometry x="1395" y="-863" width="48" height="30" as="geometry" />
        </mxCell>
        <mxCell id="mennD_nQfhp7gI7Amu3e-41" value="" style="group;fillColor=none;dashed=1;dashPattern=8 8;strokeWidth=1;strokeColor=#6c8ebf;" vertex="1" connectable="0" parent="1">
          <mxGeometry x="707" y="-194" width="292" height="335" as="geometry" />
        </mxCell>
        <mxCell id="mennD_nQfhp7gI7Amu3e-42" value="" style="rounded=0;whiteSpace=wrap;html=1;movable=1;resizable=1;rotatable=1;deletable=1;editable=1;locked=0;connectable=1;container=0;fillColor=none;strokeColor=#6c8ebf;" vertex="1" parent="mennD_nQfhp7gI7Amu3e-41">
          <mxGeometry width="292" height="335" as="geometry" />
        </mxCell>
        <mxCell id="mennD_nQfhp7gI7Amu3e-43" value="&lt;h1 style=&quot;margin-top: 0px;&quot;&gt;Classificazione Requisiti&lt;br&gt;&lt;/h1&gt;&lt;div&gt;â¢ Livello di Dettaglio:&lt;br&gt;&lt;br&gt;â¨â¢ RequisitiUtente&lt;/div&gt;&lt;div&gt;â¨â¢ Requisiti di Sistema &lt;br&gt;&lt;br&gt;&lt;br&gt;â¢ Tipo di Requisito rappresentato:&lt;br&gt;&lt;br&gt;* RequisitiFunzionali &lt;br&gt;* RequisitiNonFunzionali &lt;br&gt;* Requisiti di Dominio â¨&lt;br&gt;&lt;br&gt;&lt;/div&gt;" style="text;html=1;whiteSpace=wrap;overflow=hidden;rounded=0;movable=1;resizable=1;rotatable=1;deletable=1;editable=1;locked=0;connectable=1;container=0;fillColor=none;strokeColor=#6c8ebf;" vertex="1" parent="mennD_nQfhp7gI7Amu3e-41">
          <mxGeometry x="36.6" y="37.39" width="216.4" height="261.61" as="geometry" />
        </mxCell>
        <mxCell id="mennD_nQfhp7gI7Amu3e-44" value="1" style="text;html=1;align=center;verticalAlign=middle;whiteSpace=wrap;rounded=0;fontSize=41;fillColor=none;strokeColor=#6c8ebf;" vertex="1" parent="1">
          <mxGeometry x="662" y="-183" width="48" height="30" as="geometry" />
        </mxCell>
        <mxCell id="mennD_nQfhp7gI7Amu3e-45" value="" style="group;fillColor=none;dashed=1;dashPattern=8 8;strokeWidth=1;strokeColor=#6c8ebf;fillStyle=solid;gradientColor=#009999;gradientDirection=north;" vertex="1" connectable="0" parent="1">
          <mxGeometry x="1086" y="-271" width="277" height="583" as="geometry" />
        </mxCell>
        <mxCell id="mennD_nQfhp7gI7Amu3e-46" value="" style="rounded=0;whiteSpace=wrap;html=1;movable=1;resizable=1;rotatable=1;deletable=1;editable=1;locked=0;connectable=1;container=0;fillColor=none;strokeColor=#6c8ebf;fillStyle=solid;gradientColor=#009999;gradientDirection=north;" vertex="1" parent="mennD_nQfhp7gI7Amu3e-45">
          <mxGeometry width="277" height="583" as="geometry" />
        </mxCell>
        <mxCell id="mennD_nQfhp7gI7Amu3e-47" value="&lt;h1 style=&quot;margin-top: 0px;&quot;&gt;Livello di dettaglio&lt;br&gt;&lt;/h1&gt;â¢ Possono espressi a vari livelli di astrazione e formalismo, dando luogo a 2 tipologie di requisiti: &lt;br&gt;â¢ Requisiti Utente &lt;br&gt;* Descrivono lâinsieme di funzionalitÃ  richieste al sistema (comportamento â¨osservabile dallâesterno) e i vincoli operativi del sistema. â¨&lt;br&gt;* Scritti in linguaggio naturale. â¨&lt;br&gt;* Il punto di vista Ã¨ quello dellâUtente, che li sottopone a un possibile Sviluppatore per ottenere una offerta (requisiti aperti a soluzioni alternative) â¨â¢ Requisiti di Sistema â¨&lt;br&gt;* Formulazione dettagliata, strutturata, e testabile di servizi e vincoli. â¨&lt;br&gt;* Scritti in linguaggio naturale, notazioni semi-formali, linguaggi formali â¨&lt;br&gt;* Il punto di vista Ã¨ quello dello Sviluppatore, che li puoâ usare anche per il contratto con il Cliente (requisiti piuâ restrittivi) â¨" style="text;html=1;whiteSpace=wrap;overflow=hidden;rounded=0;movable=1;resizable=1;rotatable=1;deletable=1;editable=1;locked=0;connectable=1;container=0;fillColor=none;strokeColor=#6c8ebf;fillStyle=solid;gradientColor=#009999;gradientDirection=north;" vertex="1" parent="mennD_nQfhp7gI7Amu3e-45">
          <mxGeometry x="36.6" y="41.41" width="209.79" height="520.59" as="geometry" />
        </mxCell>
        <mxCell id="mennD_nQfhp7gI7Amu3e-48" value="1" style="text;html=1;align=center;verticalAlign=middle;whiteSpace=wrap;rounded=0;fontSize=41;fillColor=none;strokeColor=#6c8ebf;fillStyle=solid;gradientColor=#009999;gradientDirection=north;" vertex="1" parent="1">
          <mxGeometry x="1041" y="-260" width="48" height="30" as="geometry" />
        </mxCell>
        <mxCell id="mennD_nQfhp7gI7Amu3e-57" value="" style="group;fillColor=none;dashed=1;dashPattern=8 8;strokeWidth=1;strokeColor=#6c8ebf;fillStyle=solid;gradientColor=#009999;gradientDirection=north;" vertex="1" connectable="0" parent="1">
          <mxGeometry x="1419" y="-320" width="277" height="266" as="geometry" />
        </mxCell>
        <mxCell id="mennD_nQfhp7gI7Amu3e-58" value="" style="rounded=0;whiteSpace=wrap;html=1;movable=1;resizable=1;rotatable=1;deletable=1;editable=1;locked=0;connectable=1;container=0;fillColor=none;strokeColor=#6c8ebf;fillStyle=solid;gradientColor=#009999;gradientDirection=north;" vertex="1" parent="mennD_nQfhp7gI7Amu3e-57">
          <mxGeometry width="277" height="266" as="geometry" />
        </mxCell>
        <mxCell id="mennD_nQfhp7gI7Amu3e-59" value="&lt;h1 style=&quot;margin-top: 0px;&quot;&gt;Interviste&lt;br&gt;&lt;/h1&gt;&lt;div&gt;- Divise in CHIUSE e APERTE&lt;/div&gt;&lt;div&gt;&lt;br&gt;&lt;/div&gt;&lt;div&gt;- Non sempre efficaci nel raccogliere requisiti (mancanza di precisione nella descrizione del dominio da parte degli stakeholders).&lt;br&gt;&lt;/div&gt;" style="text;html=1;whiteSpace=wrap;overflow=hidden;rounded=0;movable=1;resizable=1;rotatable=1;deletable=1;editable=1;locked=0;connectable=1;container=0;fillColor=none;strokeColor=#6c8ebf;fillStyle=solid;gradientColor=#009999;gradientDirection=north;" vertex="1" parent="mennD_nQfhp7gI7Amu3e-57">
          <mxGeometry x="36.59757321905067" y="41.40845496383952" width="209.794966442953" height="183.1762393162393" as="geometry" />
        </mxCell>
        <mxCell id="mennD_nQfhp7gI7Amu3e-60" value="1" style="text;html=1;align=center;verticalAlign=middle;whiteSpace=wrap;rounded=0;fontSize=41;fillColor=none;strokeColor=#6c8ebf;fillStyle=solid;gradientColor=#009999;gradientDirection=north;" vertex="1" parent="1">
          <mxGeometry x="1374" y="-309" width="48" height="30" as="geometry" />
        </mxCell>
      </root>
    </mxGraphModel>
  </diagram>
</mxfile>
